<svg viewBox="0 0 2048 2048" xmlns="http://www.w3.org/2000/svg" aria-hidden="true" style="fill-rule:evenodd;clip-rule:evenodd;stroke-linejoin:round;stroke-miterlimit:2;">
    <g id="背景" transform="matrix(2,0,0,2,0,0)">
        <path d="M481,1.935C1058.624,1.935 1223.799,767.436 696.398,986.85C345.732,1132.737 -124.078,792.092 33.848,339.669C97.201,158.177 275.744,27.189 444.54,4.935C447.214,4.583 480.33,2.303 481,1.935Z" style="fill:rgb(36,36,36);fill-opacity:1;"/>
        <path d="M587.193,223.413C593.04,226.817 640.192,223.247 651.525,225.387C688.29,232.329 670.632,293.292 678.459,304.778C675.54,308.241 678.885,365.75 680.504,368.518C678.655,372.093 688.487,622.001 690.504,638.422C689.907,649.11 690.151,648.899 691.92,699.453L692.502,701.545C690.81,709.355 695.207,742.371 692.4,750.634C646.687,723.635 586.34,745.43 588.689,807.463C571.337,808.489 412.983,808.763 407.224,807.227C410.058,801.441 595.64,482.465 612.059,454.245C614.836,449.472 618.427,444.617 615.485,444.598C583.389,444.392 494.413,445.841 494.233,443.537C494.189,442.972 580.475,238.921 587.193,223.413Z" style="fill:rgb(186,42,30);"/>
        <path d="M431.796,240.573C369.004,447.632 331.905,562.941 334.485,563.55C337.2,564.19 444.365,562.364 444.388,564.523C444.411,566.589 398.849,719.919 378.873,788.599C378.285,788.572 378.078,787.527 377.49,787.5C376.279,787.445 377.836,790.096 374.449,790.163C302.919,791.58 290.503,788.595 283.418,786.891C278.916,775.679 276.935,776.162 276.859,764.523C276.708,741.411 284.545,482.972 285.288,458.492C291.162,264.762 290.924,264.569 293.782,258.641C303.852,237.75 312.296,242.02 426.511,242.008C426.949,242.008 429.236,242.008 431.796,240.573Z" style="fill:rgb(212,51,37);"/>
        <path d="M523.5,179.482C600.27,179.555 600.26,179.385 603.509,179.443C607.261,179.509 604.496,182.051 587.193,223.413C580.475,238.921 494.189,442.972 494.233,443.537C494.413,445.841 583.389,444.392 615.485,444.598C618.427,444.617 614.836,449.472 612.059,454.245C595.64,482.465 410.058,801.441 407.224,807.227C389.38,836.784 353.932,899.374 349.37,907.428C345.175,902.925 349.492,899.136 355.044,886.364C357.734,880.175 357.27,880.008 387.839,808.645C497.508,552.621 515.285,514.811 518.331,506.472C519.118,504.318 515.378,504.774 472.5,504.799C413.011,504.833 412.931,504.835 412.496,504.507C412.423,504.451 411.253,504.024 440.458,418.484C520.441,184.219 519.264,183.264 523.5,179.482Z" style="fill:rgb(253,202,24);"/>
        <path d="M523.5,179.482C519.264,183.264 520.441,184.219 440.458,418.484C411.253,504.024 412.423,504.451 412.496,504.507C412.931,504.835 413.011,504.833 472.5,504.799C515.378,504.774 519.118,504.318 518.331,506.472C515.285,514.811 497.508,552.621 387.839,808.645C357.27,880.008 357.734,880.175 355.044,886.364C349.492,899.136 345.175,902.925 349.37,907.428C341.805,922.04 341.891,921.967 341.2,923.209C336.611,931.456 341.093,918.491 372.741,809.54C374.785,802.56 376.829,795.579 378.873,788.599C398.849,719.919 444.411,566.589 444.388,564.523C444.365,562.364 337.2,564.19 334.485,563.55C331.905,562.941 369.004,447.632 431.796,240.573C432.183,239.29 436.091,226.332 436.485,224.489C439.792,215.659 447.587,188.006 450.072,181.331C450.903,179.101 451.893,179.483 523.5,179.482Z" style="fill:rgb(254,215,64);"/>
        <path d="M584.347,549.139L585.64,549.397C585.208,604.519 593.838,755.361 587.485,770.494C577.704,793.792 564.237,790.21 480.502,790.211C446.823,790.212 444.102,790.944 445.434,788.471C455.449,769.88 456.437,770.712 578.054,560.246C580.287,556.38 583.848,550.03 584.347,549.139Z" style="fill:rgb(211,50,35);"/>
        <path d="M678.459,304.778C685.141,304.794 691.823,304.81 698.505,304.825C704.015,311.679 698.762,335.266 703.514,335.292C710.161,335.327 782.466,324.63 798.514,391.497C801.329,403.223 800.493,403.303 800.848,590.497C800.863,597.997 800.968,653.618 747.536,667.605C730.221,672.138 715.584,668.469 715.591,671.519C715.607,678.779 717.142,699.786 715.5,699.836C696.262,700.426 693.761,699.865 691.92,699.453C690.151,648.899 689.907,649.11 690.504,638.422C721.745,638.439 760.58,644.832 769.766,606.56C773.083,592.74 770.988,424.336 770.791,408.491C770.637,396.073 763.75,383.041 754.14,375.937C742.224,367.129 732.041,368.169 680.504,368.518C678.885,365.75 675.54,308.241 678.459,304.778Z" style="fill:rgb(194,138,34);"/>
        <path d="M698.505,304.825C707.294,304.83 831.296,289.805 831.174,419.5C830.993,612.198 832.953,612.874 824.171,635.373C793.583,713.74 706.504,701.501 692.502,701.545L691.92,699.453C693.761,699.865 696.262,700.426 715.5,699.836C717.142,699.786 715.607,678.779 715.591,671.519C715.584,668.469 730.221,672.138 747.536,667.605C800.968,653.618 800.863,597.997 800.848,590.497C800.493,403.303 801.329,403.223 798.514,391.497C782.466,324.63 710.161,335.327 703.514,335.292C698.762,335.266 704.015,311.679 698.505,304.825Z" style="fill:rgb(228,182,83);"/>
        <path d="M436.485,224.489C436.091,226.332 432.183,239.29 431.796,240.573C429.236,242.008 426.949,242.008 426.511,242.008C312.296,242.02 303.852,237.75 293.782,258.641C290.924,264.569 291.162,264.762 285.288,458.492C284.545,482.972 276.708,741.411 276.859,764.523C276.935,776.162 278.916,775.679 283.418,786.891C279.29,784.625 279.838,782.581 275.278,783.66C273.942,781.347 267.262,772.314 264.983,758.428C263.276,748.028 274.355,373.004 275.345,339.494C278.186,243.338 274.915,238.353 293.734,227.915C306.048,221.086 421.324,226.835 436.485,224.489Z" style="fill:rgb(225,88,74);"/>
        <path d="M719.108,798.497C719.108,743.041 719.122,743.151 719.291,742.409C719.652,740.827 732.607,741.269 741.503,741.296C745.084,741.307 778.83,784.401 800.609,811.386C803.971,815.552 802.024,808.908 802.494,744.5C802.528,739.792 815.034,741.293 828.502,741.326C829.323,741.328 831.072,741.284 831.065,743.518C830.725,859.413 831.981,861.24 829.471,861.311C809.178,861.883 807.036,862.033 802.962,857.123C752.755,796.627 753.838,795.873 749.183,790.88C745.437,786.863 750.388,793.914 747.628,859.517C747.537,861.684 746.7,862.87 720.559,861.215C718.788,861.103 719.097,859.954 719.108,798.497Z" style="fill:rgb(254,254,254);"/>
        <path d="M692.4,750.634C700.534,757.411 701.394,756.838 701.978,759.726C702.388,761.757 686.763,776.8 685.33,778.179C684.095,777.655 685.352,776.073 671.604,768.532C660.28,762.32 641.164,763.056 630.039,772.918C615.402,785.893 617.882,788.03 617.937,807.465C618.89,811.075 626.112,838.424 652.71,838.599C672.99,838.731 683.948,822.948 687.442,825.561C688.904,826.653 705.591,839.132 702.035,843.094C674.929,873.292 600.643,875.725 588.689,807.463C586.34,745.43 646.687,723.635 692.4,750.634Z" style="fill:rgb(254,254,254);"/>
        <path d="M685.33,778.179C675.819,802.425 639.404,812.087 617.937,807.465C617.891,791.299 615.12,789.854 625.468,777.469C637.809,762.7 659.278,761.77 671.604,768.532C685.219,776 684.095,777.655 685.33,778.179Z" style="fill:rgb(169,34,27);"/>
        <path d="M275.278,783.66C279.838,782.581 279.29,784.625 283.418,786.891C294.741,789.614 372.929,792.163 376.785,788.786C377.649,788.029 377.648,788.543 378.873,788.599C376.829,795.579 374.785,802.56 372.741,809.54C369.839,806.113 368.581,811.381 316.633,807.939C294.067,806.444 277.718,786.619 275.278,783.66Z" style="fill:rgb(180,40,30);"/>
    </g>
</svg>
